<svg xmlns="http://www.w3.org/2000/svg" xmlns:xlink="http://www.w3.org/1999/xlink" width="50" zoomAndPan="magnify" viewBox="0 0 37.5 37.499999" height="50" preserveAspectRatio="xMidYMid meet" version="1.2"><defs><clipPath id="569de8b2ec"><path d="M 0 0 L 37.007812 0 L 37.007812 37.007812 L 0 37.007812 Z M 0 0 "/></clipPath><clipPath id="99b7f16e32"><path d="M 2.605469 2.765625 L 34.359375 2.765625 L 34.359375 34.515625 L 2.605469 34.515625 Z M 2.605469 2.765625 "/></clipPath><clipPath id="e3da2db6c0"><path d="M 18.484375 2.765625 C 9.714844 2.765625 2.605469 9.871094 2.605469 18.640625 C 2.605469 27.40625 9.714844 34.515625 18.484375 34.515625 C 27.25 34.515625 34.359375 27.40625 34.359375 18.640625 C 34.359375 9.871094 27.25 2.765625 18.484375 2.765625 Z M 18.484375 2.765625 "/></clipPath></defs><g id="4ae3a47c8d"><g clip-rule="nonzero" clip-path="url(#569de8b2ec)"><path style=" stroke:none;fill-rule:nonzero;fill:#ffffff;fill-opacity:1;" d="M 0 0 L 37.007812 0 L 37.007812 37.007812 L 0 37.007812 Z M 0 0 "/><path style=" stroke:none;fill-rule:nonzero;fill:#ffffff;fill-opacity:1;" d="M 0 0 L 37.007812 0 L 37.007812 37.007812 L 0 37.007812 Z M 0 0 "/><rect x="0" width="37.5" y="0" height="37.499999" style="fill:#ffffff;fill-opacity:1;stroke:none;"/><rect x="0" width="37.5" y="0" height="37.499999" style="fill:#ffffff;fill-opacity:1;stroke:none;"/></g><g clip-rule="nonzero" clip-path="url(#99b7f16e32)"><g clip-rule="nonzero" clip-path="url(#e3da2db6c0)"><path style="fill:none;stroke-width:8;stroke-linecap:butt;stroke-linejoin:miter;stroke:#000000;stroke-opacity:1;stroke-miterlimit:4;" d="M 75.006192 0.00902101 C 33.577477 0.00902101 -0.00838613 33.57643 -0.00838613 75.005145 C -0.00838613 116.415407 33.577477 150.00127 75.006192 150.00127 C 116.416454 150.00127 150.002316 116.415407 150.002316 75.005145 C 150.002316 33.57643 116.416454 0.00902101 75.006192 0.00902101 Z M 75.006192 0.00902101 " transform="matrix(0.211678,0,0,0.211678,2.607244,2.763715)"/></g></g><path style=" stroke:none;fill-rule:nonzero;fill:#000000;fill-opacity:1;" d="M 8.503906 9.472656 L 13.242188 9.472656 L 18.257812 21.695312 L 18.46875 21.695312 L 23.480469 9.472656 L 28.222656 9.472656 L 28.222656 27.667969 L 24.492188 27.667969 L 24.492188 15.824219 L 24.34375 15.824219 L 19.632812 27.578125 L 17.09375 27.578125 L 12.382812 15.78125 L 12.234375 15.78125 L 12.234375 27.667969 L 8.503906 27.667969 Z M 8.503906 9.472656 "/></g></svg>