<svg xmlns="http://www.w3.org/2000/svg" xmlns:xlink="http://www.w3.org/1999/xlink" width="200" zoomAndPan="magnify" viewBox="0 0 150 37.5" height="50" preserveAspectRatio="xMidYMid meet" version="1.2"><defs><clipPath id="81560e0a07"><path d="M 0.988281 0 L 149.011719 0 L 149.011719 37.007812 L 0.988281 37.007812 Z M 0.988281 0 "/></clipPath><clipPath id="f28baaf7a2"><path d="M 5.515625 5.996094 L 144.660156 5.996094 L 144.660156 31.160156 L 5.515625 31.160156 Z M 5.515625 5.996094 "/></clipPath><clipPath id="c35de60726"><path d="M 122 7 L 144.660156 7 L 144.660156 31 L 122 31 Z M 122 7 "/></clipPath></defs><g id="90d3bd15d6"><g clip-rule="nonzero" clip-path="url(#81560e0a07)"><path style=" stroke:none;fill-rule:nonzero;fill:#ffffff;fill-opacity:1;" d="M 0.988281 0 L 149.011719 0 L 149.011719 37.007812 L 0.988281 37.007812 Z M 0.988281 0 "/><path style=" stroke:none;fill-rule:nonzero;fill:#ffffff;fill-opacity:1;" d="M 0.988281 0 L 149.011719 0 L 149.011719 37.007812 L 0.988281 37.007812 Z M 0.988281 0 "/></g><g clip-rule="nonzero" clip-path="url(#f28baaf7a2)"><rect x="0" width="150" y="0" height="37.5" style="fill:#ffffff;fill-opacity:1;stroke:none;"/><rect x="0" width="150" y="0" height="37.5" style="fill:#ffffff;fill-opacity:1;stroke:none;"/></g><path style=" stroke:none;fill-rule:nonzero;fill:#000000;fill-opacity:1;" d="M 6.867188 7.167969 L 12.984375 7.167969 L 19.429688 22.921875 L 19.710938 22.921875 L 26.15625 7.167969 L 32.277344 7.167969 L 32.277344 30.621094 L 27.46875 30.621094 L 27.46875 15.367188 L 27.265625 15.367188 L 21.207031 30.5 L 17.933594 30.5 L 11.875 15.308594 L 11.671875 15.308594 L 11.671875 30.621094 L 6.867188 30.621094 Z M 6.867188 7.167969 "/><path style=" stroke:none;fill-rule:nonzero;fill:#000000;fill-opacity:1;" d="M 41.789062 30.621094 L 36.476562 30.621094 L 44.578125 7.167969 L 50.960938 7.167969 L 59.039062 30.621094 L 53.726562 30.621094 L 51.992188 25.265625 L 43.527344 25.265625 Z M 44.78125 21.410156 L 50.738281 21.410156 L 47.851562 12.539062 L 47.667969 12.539062 Z M 44.78125 21.410156 "/><path style=" stroke:none;fill-rule:nonzero;fill:#000000;fill-opacity:1;" d="M 62.957031 30.621094 L 62.957031 7.167969 L 67.90625 7.167969 L 67.90625 17.511719 L 68.230469 17.511719 L 76.652344 7.167969 L 82.589844 7.167969 L 73.90625 17.671875 L 82.710938 30.621094 L 76.773438 30.621094 L 70.351562 20.984375 L 67.90625 23.953125 L 67.90625 30.621094 Z M 62.957031 30.621094 "/><path style=" stroke:none;fill-rule:nonzero;fill:#000000;fill-opacity:1;" d="M 86.285156 30.621094 L 86.285156 7.167969 L 102.082031 7.167969 L 102.082031 11.269531 L 91.234375 11.269531 L 91.234375 16.84375 L 101.273438 16.84375 L 101.273438 20.945312 L 91.234375 20.945312 L 91.234375 26.539062 L 102.121094 26.539062 L 102.121094 30.621094 Z M 86.285156 30.621094 "/><path style=" stroke:none;fill-rule:nonzero;fill:#000000;fill-opacity:1;" d="M 107.128906 30.621094 L 107.128906 7.167969 L 112.078125 7.167969 L 112.078125 26.539062 L 122.140625 26.539062 L 122.140625 30.621094 Z M 107.128906 30.621094 "/><g clip-rule="nonzero" clip-path="url(#c35de60726)"><path style=" stroke:none;fill-rule:nonzero;fill:#000000;fill-opacity:1;" d="M 122.148438 7.167969 L 127.703125 7.167969 L 133.035156 17.265625 L 133.277344 17.265625 L 138.609375 7.167969 L 144.164062 7.167969 L 135.621094 22.335938 L 135.621094 30.621094 L 130.691406 30.621094 L 130.691406 22.335938 Z M 122.148438 7.167969 "/></g></g></svg>